/vscmnt/brussel_pixiu_data/_data_brussel/112/vsc11236/PredSimResults/SUBJ06_Falisse2022/SUBJ06_Falisse2022_11471709.mot
version=1
nRows=4
nColumns=124
inDegrees=yes
endheader
                time	         pelvis_tilt	         pelvis_list	     pelvis_rotation	           pelvis_tx	           pelvis_ty	           pelvis_tz	       hip_flexion_r	     hip_adduction_r	      hip_rotation_r	        knee_angle_r	       ankle_angle_r	    subtalar_angle_r	         mtp_angle_r	       hip_flexion_l	     hip_adduction_l	      hip_rotation_l	        knee_angle_l	       ankle_angle_l	    subtalar_angle_l	         mtp_angle_l	    lumbar_extension	      lumbar_bending	     lumbar_rotation	          arm_flex_r	           arm_add_r	           arm_rot_r	        elbow_flex_r	          arm_flex_l	           arm_add_l	           arm_rot_l	        elbow_flex_l	glut_med1_r/activation	glut_med2_r/activation	glut_med3_r/activation	glut_min1_r/activation	glut_min2_r/activation	glut_min3_r/activation	semimem_r/activation	semiten_r/activation	bifemlh_r/activation	bifemsh_r/activation	    sar_r/activation	add_long_r/activation	add_brev_r/activation	add_mag1_r/activation	add_mag2_r/activation	add_mag3_r/activation	    tfl_r/activation	   pect_r/activation	   grac_r/activation	glut_max1_r/activation	glut_max2_r/activation	glut_max3_r/activation	iliacus_r/activation	  psoas_r/activation	quad_fem_r/activation	    gem_r/activation	   peri_r/activation	rect_fem_r/activation	vas_med_r/activation	vas_int_r/activation	vas_lat_r/activation	med_gas_r/activation	lat_gas_r/activation	 soleus_r/activation	tib_post_r/activation	flex_dig_r/activation	flex_hal_r/activation	tib_ant_r/activation	per_brev_r/activation	per_long_r/activation	per_tert_r/activation	ext_dig_r/activation	ext_hal_r/activation	glut_med1_l/activation	glut_med2_l/activation	glut_med3_l/activation	glut_min1_l/activation	glut_min2_l/activation	glut_min3_l/activation	semimem_l/activation	semiten_l/activation	bifemlh_l/activation	bifemsh_l/activation	    sar_l/activation	add_long_l/activation	add_brev_l/activation	add_mag1_l/activation	add_mag2_l/activation	add_mag3_l/activation	    tfl_l/activation	   pect_l/activation	   grac_l/activation	glut_max1_l/activation	glut_max2_l/activation	glut_max3_l/activation	iliacus_l/activation	  psoas_l/activation	quad_fem_l/activation	    gem_l/activation	   peri_l/activation	rect_fem_l/activation	vas_med_l/activation	vas_int_l/activation	vas_lat_l/activation	med_gas_l/activation	lat_gas_l/activation	 soleus_l/activation	tib_post_l/activation	flex_dig_l/activation	flex_hal_l/activation	tib_ant_l/activation	per_brev_l/activation	per_long_l/activation	per_tert_l/activation	ext_dig_l/activation	ext_hal_l/activation	 ercspn_r/activation	 ercspn_l/activation	 intobl_r/activation	 intobl_l/activation	 extobl_r/activation	 extobl_l/activation	
          0.61262030	         -9.99568521	          3.12268822	         -2.56504626	          0.68613474	          0.92812928	          0.00548879	         -9.33252401	         -0.30779582	         10.98467090	         -4.79328020	          6.12631213	         -5.15311340	         30.07510998	         34.02439791	          4.32406410	          2.29303508	         -5.34735419	         10.82855911	         -8.18172995	          0.17458093	          2.53732546	         -1.95335685	          1.55012592	          1.41135264	        -13.46853507	         19.28619650	         64.22806235	         -6.16079853	        -13.45075430	         19.34225436	         22.69688150	          0.19189618	          0.16058053	          0.14097704	          0.13687605	          0.21238299	          0.19092044	          0.01000050	          0.01000042	          0.01000043	          0.05532422	          0.10056207	          0.01225314	          0.01000195	          0.01000475	          0.01000530	          0.01000071	          0.24670940	          0.01158885	          0.02090147	          0.03617050	          0.02683449	          0.01204383	          0.30402346	          0.41247889	          0.03301839	          0.03647040	          0.17501850	          0.12244403	          0.01000200	          0.01000192	          0.01000163	          0.34704697	          0.44026390	          0.34629710	          0.30685838	          0.32422497	          0.31989034	          0.01377007	          0.01000033	          0.01000026	          0.01000036	          0.01000009	          0.01000042	          0.07127906	          0.01204190	          0.01000025	          0.07050455	          0.01204291	          0.01204025	          0.17888952	          0.01782294	          0.01337741	          0.01000151	          0.01768160	          0.03178221	          0.12167132	          0.13537986	          0.09815603	          0.04283697	          0.01000220	          0.02003994	          0.07629866	          0.01000064	          0.01000016	          0.04034479	          0.02102877	          0.02011712	          0.26473134	          0.11004459	          0.01000008	          0.01746323	          0.11029217	          0.11322336	          0.09779637	          0.01000001	          0.01000003	          0.01000000	          0.01204206	          0.01000039	          0.01000030	          0.38377153	          0.18484981	          0.14544843	          0.28778498	          0.47380107	          0.09249370	          0.01642953	          0.05654289	          0.01012489	          0.03913182	          0.01000003	          0.05704872	
          0.62487271	         -9.98716736	          3.43562500	         -2.77337683	          0.70257926	          0.92674631	          0.00533272	         -9.33314202	         -0.56800594	         10.45839977	         -6.64370560	          5.97132001	         -4.67138205	         31.76673715	         33.06998211	          4.73506574	          2.62957723	         -5.07300223	          9.74292664	         -8.69202669	          0.17919231	          2.67359578	         -2.42481415	          1.59877996	          0.82236785	        -13.48388109	         19.24319468	         66.19001641	         -6.66449732	        -13.45874569	         19.29288084	         21.57318373	          0.15935569	          0.13334967	          0.11707048	          0.19767013	          0.17636771	          0.15854462	          0.01000284	          0.01000132	          0.01000079	          0.04594249	          0.08350915	          0.01017564	          0.01000062	          0.01000093	          0.01000240	          0.01000099	          0.20487314	          0.01000517	          0.01735755	          0.03003715	          0.02228417	          0.01000194	          0.25316362	          0.34287079	          0.02741925	          0.03028604	          0.14533927	          0.10168028	          0.01000062	          0.01000060	          0.01000051	          0.28819554	          0.37742926	          0.33790497	          0.29187011	          0.30366763	          0.30697263	          0.01143500	          0.01000030	          0.01000025	          0.01000038	          0.01000014	          0.01000077	          0.10346377	          0.01000016	          0.01000044	          0.05854862	          0.01000079	          0.01000025	          0.14855389	          0.01480065	          0.01110895	          0.01000010	          0.01468335	          0.02639282	          0.10103871	          0.11242279	          0.08151121	          0.03557289	          0.01000079	          0.01664395	          0.06336064	          0.01000082	          0.05866444	          0.03350345	          0.01746278	          0.01670575	          0.21983899	          0.09138368	          0.16980012	          0.01450226	          0.09158989	          0.09402390	          0.08121293	          0.02084962	          0.02027690	          0.01833155	          0.01000005	          0.01450110	          0.01450266	          0.31869241	          0.21032009	          0.13766769	          0.23898319	          0.43079050	          0.07680886	          0.03072905	          0.04695450	          0.01000009	          0.03249605	          0.01000014	          0.04737453	
          0.63712512	         -9.97474249	          3.74130661	         -2.96538609	          0.71922087	          0.92545110	          0.00514919	         -9.24040434	         -0.82621616	          9.91288375	         -8.67111018	          5.71396686	         -4.18092961	         33.37363782	         32.04382240	          5.10616304	          2.97640283	         -4.93537488	          8.78745092	         -9.19782267	          0.17083120	          2.82087573	         -2.89456074	          1.63972286	          0.18522513	        -13.49799791	         19.19488025	         68.06208825	         -7.19391213	        -13.47315175	         19.24074006	         20.56960077	          0.21335393	          0.11073655	          0.09721793	          0.20420479	          0.14645982	          0.13165902	          0.01000359	          0.01000064	          0.01000033	          0.03815168	          0.06934796	          0.02036800	          0.01000111	          0.01000095	          0.01000188	          0.01000077	          0.17013140	          0.02984165	          0.01441469	          0.02494384	          0.01850548	          0.01000068	          0.21023277	          0.28472761	          0.02276959	          0.02515037	          0.12069298	          0.08443763	          0.01000063	          0.01000062	          0.01000053	          0.23932398	          0.31342571	          0.31535971	          0.28117594	          0.29632522	          0.29453138	          0.01000006	          0.01000047	          0.01000060	          0.01000035	          0.01000010	          0.01000047	          0.15296155	          0.18069059	          0.22947939	          0.05835679	          0.14790926	          0.15108948	          0.12336247	          0.04825370	          0.02841749	          0.04421663	          0.01219682	          0.02191727	          0.08390483	          0.09335850	          0.06768886	          0.02954061	          0.01003367	          0.01382262	          0.05262421	          0.10499032	          0.05722612	          0.02782210	          0.01450152	          0.01387290	          0.18255972	          0.07588781	          0.14100704	          0.01204303	          0.07605834	          0.07807960	          0.06744108	          0.01731399	          0.01683840	          0.01522293	          0.01450090	          0.01204233	          0.01204349	          0.47270159	          0.27547332	          0.16595343	          0.35574096	          0.54340749	          0.22408440	          0.04288725	          0.05999334	          0.01000002	          0.03339127	          0.01000005	          0.03934087	
          0.64937752	         -9.96064070	          4.02925264	         -3.14141936	          0.73586548	          0.92437970	          0.00491587	         -9.02113413	         -1.07690852	          9.36672260	        -10.89914161	          5.33034686	         -3.66839701	         34.82701646	         30.99762592	          5.46609717	          3.31418766	         -4.75632645	          7.81533615	         -9.70867949	          0.16337013	          2.96511145	         -3.34753212	          1.67422932	         -0.45860755	        -13.51175061	         19.15397208	         69.78948406	         -7.70802710	        -13.48306408	         19.19782925	         19.66358432	          0.19663397	          0.09195811	          0.08073194	          0.16957762	          0.12162360	          0.10933262	          0.01133800	          0.01000246	          0.01000131	          0.03168203	          0.05758817	          0.02715899	          0.03503703	          0.01002280	          0.01007649	          0.03734666	          0.14128101	          0.02478838	          0.01197129	          0.02071429	          0.01536767	          0.01000205	          0.17458199	          0.23644417	          0.01890841	          0.02088560	          0.10022615	          0.07011891	          0.01585344	          0.01603785	          0.01694127	          0.19873995	          0.26027569	          0.28300889	          0.26588572	          0.28070564	          0.27489076	          0.01000008	          0.01023235	          0.01204199	          0.01000054	          0.01000014	          0.01000051	          0.22507110	          0.27219549	          0.33327743	          0.04891025	          0.12284323	          0.20046867	          0.10244297	          0.05769370	          0.04115909	          0.03671852	          0.01012874	          0.01820068	          0.06967650	          0.07752753	          0.05621702	          0.05056867	          0.01000056	          0.01148070	          0.04370683	          0.16584074	          0.10259670	          0.05208489	          0.01204241	          0.01152041	          0.15160603	          0.06301940	          0.21192987	          0.01000087	          0.06316107	          0.06483955	          0.05600501	          0.01437793	          0.01398300	          0.01264146	          0.01204190	          0.01000063	          0.01000135	          0.53332682	          0.26605106	          0.14844094	          0.48375343	          0.57146995	          0.25885615	          0.06999349	          0.06981869	          0.01000003	          0.02772888	          0.01000004	          0.03266953	
